<?xml version="1.0" encoding="UTF-8" standalone="no"?><!DOCTYPE svg PUBLIC "-//W3C//DTD SVG 1.1//EN" "http://www.w3.org/Graphics/SVG/1.1/DTD/svg11.dtd"><svg width="100%" height="100%" viewBox="0 0 4672 4557" version="1.1" xmlns="http://www.w3.org/2000/svg" xmlns:xlink="http://www.w3.org/1999/xlink" xml:space="preserve" xmlns:serif="http://www.serif.com/" style="fill-rule:evenodd;clip-rule:evenodd;stroke-linecap:round;stroke-linejoin:round;stroke-miterlimit:1.5;"><rect id="buchner-extractor-white" x="-0" y="0" width="4671.41" height="4556.72" style="fill:none;"/><g><path d="M2004.12,917.759c526.688,-0.236 973.376,-0.457 1500.06,-0c36.475,0.031 72.859,7.388 106.546,21.347c102.923,42.649 171.97,145.761 172.039,257.238c0.458,742.894 0.578,1485.79 0,2228.68c-0.056,71.779 -28.853,142.426 -78.758,193.984c-51.948,53.669 -125.162,84.566 -199.827,84.601c-742.894,0.352 -1485.79,0.578 -2228.68,0c-107.509,-0.083 -208.282,-64.687 -253.075,-162.327c-16.676,-36.349 -25.491,-76.257 -25.511,-116.258c-0.351,-719.56 -0.236,-1349.12 0,-2068.68c0,0 0,-30 -112.979,-70.785c-0.297,746.751 -0.442,1433.5 0,2180.25c0.024,40.304 7.126,80.559 20.742,118.485c49.345,137.446 183.786,232.156 330.037,232.294c770.084,0.726 1540.17,0.327 2310.25,-0c98.77,-0.042 194.773,-42.727 260.699,-116.444c57.193,-63.952 89.98,-148.476 90.08,-234.335c0.896,-770.084 0.576,-1540.17 0,-2310.25c-0.114,-152.782 -102.884,-290.964 -248.897,-335.471c-32.975,-10.051 -67.404,-15.269 -101.882,-15.308c-504.499,-0.575 -1039,-0.296 -1543.5,-0l2.649,112.979Z" style="fill:#fff;stroke:#fff;stroke-width:29.17px;"/><path d="M878.478,2349.97l-236.174,-0.03" style="fill:none;stroke:#fff;stroke-width:108.33px;"/><path d="M878.503,1790.36l-236.174,-0.03" style="fill:none;stroke:#fff;stroke-width:108.33px;"/><path d="M436.723,2350.02c0.004,-56.71 46.049,-102.747 102.758,-102.743c56.709,0.005 102.747,46.049 102.743,102.758c-0.005,56.71 -46.049,102.747 -102.758,102.743c-56.71,-0.005 -102.747,-46.049 -102.743,-102.758Z" style="fill:#fff;stroke:#fff;stroke-width:62.5px;"/><path d="M878.478,2913.97l-236.174,-0.03" style="fill:none;stroke:#fff;stroke-width:108.33px;"/><path d="M436.723,2914.02c0.004,-56.71 46.049,-102.747 102.758,-102.743c56.709,0.005 102.747,46.049 102.743,102.758c-0.005,56.71 -46.049,102.747 -102.758,102.743c-56.71,-0.005 -102.747,-46.049 -102.743,-102.758Z" style="fill:#fff;stroke:#fff;stroke-width:62.5px;"/><path d="M436.766,1790.41c0.005,-56.71 46.049,-102.747 102.758,-102.743c56.71,0.004 102.747,46.049 102.743,102.758c-0.005,56.709 -46.049,102.747 -102.758,102.743c-56.71,-0.005 -102.747,-46.049 -102.743,-102.758Z" style="fill:#fff;stroke:#fff;stroke-width:62.5px;"/><path d="M3907.63,1595.8l236.221,-0.085" style="fill:none;stroke:#fff;stroke-width:108.33px;"/><path d="M3907.92,2156.84l236.174,-0.075" style="fill:none;stroke:#fff;stroke-width:108.33px;"/><path d="M3908.16,2716.45l236.174,-0.075" style="fill:none;stroke:#fff;stroke-width:108.33px;"/><path d="M4349.48,1597.28c0.021,56.709 -46.002,102.767 -102.712,102.788c-56.709,0.021 -102.767,-46.003 -102.788,-102.712c-0.021,-56.71 46.003,-102.767 102.712,-102.788c56.71,-0.021 102.767,46.003 102.788,102.712Z" style="fill:#fff;stroke:#fff;stroke-width:62.5px;"/><path d="M4349.68,2156.59c0.02,56.709 -46.003,102.767 -102.713,102.788c-56.709,0.021 -102.767,-46.003 -102.788,-102.712c-0.021,-56.71 46.003,-102.767 102.712,-102.788c56.71,-0.021 102.768,46.002 102.789,102.712Z" style="fill:#fff;stroke:#fff;stroke-width:62.5px;"/><path d="M4349.89,2716.2c0.021,56.709 -46.003,102.767 -102.712,102.788c-56.709,0.021 -102.767,-46.003 -102.788,-102.712c-0.021,-56.71 46.003,-102.767 102.712,-102.788c56.709,-0.021 102.767,46.002 102.788,102.712Z" style="fill:#fff;stroke:#fff;stroke-width:62.5px;"/><path d="M2732.04,812.558l0.068,-236.174" style="fill:none;stroke:#fff;stroke-width:108.33px;"/><path d="M3292.01,812.659l0.068,-236.174" style="fill:none;stroke:#fff;stroke-width:108.33px;"/><path d="M2732.06,370.821c56.709,0.013 102.739,46.065 102.726,102.774c-0.014,56.71 -46.065,102.74 -102.775,102.727c-56.709,-0.014 -102.739,-46.065 -102.726,-102.775c0.014,-56.709 46.065,-102.739 102.775,-102.726Z" style="fill:#fff;stroke:#fff;stroke-width:62.5px;"/><path d="M3292.03,370.938c56.709,0.014 102.739,46.065 102.726,102.775c-0.013,56.709 -46.065,102.739 -102.774,102.726c-56.71,-0.014 -102.74,-46.065 -102.726,-102.775c0.013,-56.709 46.065,-102.739 102.774,-102.726Z" style="fill:#fff;stroke:#fff;stroke-width:62.5px;"/><path d="M2153,3816.69l-0.069,236.174" style="fill:none;stroke:#fff;stroke-width:108.33px;"/><path d="M2152.98,4258.43c-56.71,-0.014 -102.74,-46.065 -102.726,-102.775c0.013,-56.709 46.065,-102.739 102.774,-102.726c56.709,0.014 102.739,46.065 102.726,102.775c-0.013,56.709 -46.065,102.739 -102.774,102.726Z" style="fill:#fff;stroke:#fff;stroke-width:62.5px;"/><path d="M2732.11,3816.69l-0.068,236.174" style="fill:none;stroke:#fff;stroke-width:108.33px;"/><path d="M2732.01,4258.43c-56.709,-0.014 -102.739,-46.065 -102.726,-102.775c0.014,-56.709 46.065,-102.739 102.775,-102.726c56.709,0.014 102.739,46.065 102.726,102.775c-0.014,56.709 -46.065,102.739 -102.775,102.726Z" style="fill:#fff;stroke:#fff;stroke-width:62.5px;"/><path d="M3292.08,3816.69l-0.068,236.174" style="fill:none;stroke:#fff;stroke-width:108.33px;"/><path d="M3291.98,4258.43c-56.71,-0.014 -102.74,-46.065 -102.726,-102.775c0.013,-56.709 46.065,-102.739 102.774,-102.726c56.709,0.014 102.739,46.065 102.726,102.775c-0.013,56.709 -46.065,102.739 -102.774,102.726Z" style="fill:#fff;stroke:#fff;stroke-width:62.5px;"/><path d="M1611.44,3816.69l-0.068,236.174" style="fill:none;stroke:#fff;stroke-width:108.33px;"/><path d="M1613.08,4258.43c-56.71,-0.014 -102.74,-46.065 -102.727,-102.775c0.014,-56.709 46.065,-102.739 102.775,-102.726c56.709,0.014 102.739,46.065 102.726,102.775c-0.014,56.709 -46.065,102.739 -102.774,102.726Z" style="fill:#fff;stroke:#fff;stroke-width:62.5px;"/></g><g><path d="M4347.21,3264.54c0.021,56.709 -46.003,102.767 -102.712,102.788c-56.71,0.021 -102.767,-46.003 -102.788,-102.712c-0.021,-56.71 46.002,-102.768 102.712,-102.789c56.709,-0.021 102.767,46.003 102.788,102.713Z" style="fill:#fff;stroke:#fff;stroke-width:62.5px;"/><path d="M3074.55,1642.26c-0,-78.262 -63.54,-141.802 -141.802,-141.802c-78.263,0 -141.803,63.54 -141.803,141.802l0,1218.6c0,78.263 63.54,141.803 141.803,141.803c78.262,-0 141.802,-63.54 141.802,-141.803l-0,-1218.6Z" style="fill:#fff;stroke:#fff;stroke-width:62.5px;"/><path d="M3618.36,1642.26c0,-78.262 -63.539,-141.802 -141.802,-141.802c-78.263,0 -141.802,63.54 -141.802,141.802l0,1218.6c0,78.263 63.539,141.803 141.802,141.803c78.263,-0 141.802,-63.54 141.802,-141.803l0,-1218.6Z" style="fill:#fff;stroke:#fff;stroke-width:62.5px;"/><path d="M1988.5,1642.26c-0,-78.262 -63.54,-141.802 -141.803,-141.802c-78.262,0 -141.802,63.54 -141.802,141.802l0,1218.6c0,78.263 63.54,141.803 141.802,141.803c78.263,-0 141.803,-63.54 141.803,-141.803l-0,-1218.6Z" style="fill:#fff;stroke:#fff;stroke-width:62.5px;"/><path d="M1445.5,1673.26c-0,-78.262 -74.622,294.448 -152.884,294.448c-78.263,0 -130.721,-223.71 -130.721,-145.448l0,1038.6c0,78.263 63.54,141.803 141.802,141.803c78.263,-0 141.803,-63.54 141.803,-141.803l-0,-1187.6Z" style="fill:#fff;stroke:#fff;stroke-width:62.5px;"/><path d="M2531.65,1642.26c-0,-78.262 -63.54,-141.802 -141.802,-141.802c-78.263,0 -141.802,63.54 -141.802,141.802l-0,1218.6c-0,78.263 63.539,141.803 141.802,141.803c78.262,-0 141.802,-63.54 141.802,-141.803l-0,-1218.6Z" style="fill:#fff;stroke:#fff;stroke-width:62.5px;"/><path d="M1303.7,3002.66c0.246,72.565 26.078,152.38 79.337,203.605c73.518,70.71 192.159,82.07 286.483,54.569c35.164,-10.253 69.831,-26.737 96.962,-51.774c17.737,-16.368 30.783,-36.731 41.606,-58.119c22.754,-44.963 38.612,-97.56 38.612,-148.281" style="fill:none;stroke:#fff;stroke-width:108.33px;"/><path d="M2389.84,3002.66c0.099,29.292 34.497,47.64 54.327,61.761c36.969,26.326 75.176,53.096 87.592,99.527c13.167,49.238 -3.444,102.044 -25.653,146.022c-3.258,6.451 -6.756,12.782 -10.361,19.046c-19.044,33.092 -56.456,77.081 -28.419,115.934c8.048,11.153 19.399,20.811 30.367,28.791c18.58,13.516 34.657,21.978 55.107,33.045c36.611,19.812 66.947,37.992 109.568,34.403c44.495,-3.748 86.493,-20.042 128.576,-33.54c24.15,-7.746 50.527,-16.076 75.971,-8.891c26.813,7.572 39.887,32.792 56.225,52.801c10.775,13.195 19.032,23.265 32.351,32.796c29.592,21.177 66.539,26.06 101.649,30.903c13.937,1.923 27.955,3.355 42,4.177c51.721,3.026 113.36,-1.776 149.656,-43.921c8.717,-10.122 15.112,-21.689 19.967,-34.074c10.277,-26.217 13.122,-55.676 13.193,-83.614c0.074,-29.29 0.124,-59.498 -5.152,-88.501c-2.019,-11.096 -4.95,-22.29 -9.261,-32.744c-3.436,-8.334 -7.836,-16.239 -13.556,-23.233c-21.291,-26.029 -55.259,-27.601 -86.38,-23.163c-9.058,1.291 -18.042,3.14 -26.93,5.313c-18.928,4.628 -37.632,10.129 -56.478,15.079c-47.783,12.55 -111.717,30.13 -151.452,-10.405c-27.787,-28.345 -24.361,-74.144 -20.395,-110.137c6.897,-62.597 17.514,-124.39 20.488,-187.375" style="fill:none;stroke:#fff;stroke-width:108.33px;"/><path d="M2389.84,1500.26c-0.309,-82.613 -33.642,-170.762 -100.61,-221.978c-104.792,-80.145 -266.796,-79.432 -362.524,15.359c-23.413,23.183 -39.684,52.124 -52.198,82.354c-16.121,38.945 -27.683,82.05 -27.668,124.457" style="fill:none;stroke:#fff;stroke-width:108.33px;"/><path d="M3475.75,1500.07c-0.274,-73.201 -26.544,-151.93 -79.585,-203.952c-101.212,-99.268 -281.413,-102.528 -383.446,-2.659c-29.868,29.235 -48.566,68.352 -61.693,107.509c-10.65,31.767 -18.288,65.633 -18.276,99.295" style="fill:none;stroke:#fff;stroke-width:108.33px;"/><path d="M4244.46,3257.88c-33.547,-0.465 -67.079,-0.146 -100.603,0.556c-90.757,1.899 -181.457,6.602 -272.253,6.134c-51.685,-0.267 -103.98,-1.525 -155.224,-9.312c-40.202,-6.109 -80.301,-16.127 -115.578,-37.029c-37.073,-21.968 -67.734,-58.75 -86.899,-97.032c-14.677,-29.316 -22.056,-46.427 -31.272,-77.704c-8.946,-30.361 -15.565,-63.031 -15.618,-94.842" style="fill:none;stroke:#fff;stroke-width:108.33px;"/></g><g><path d="M601.749,547.429l-0,493.807l535.791,451.943l0,2.139l80.556,498.822l172.91,-138.141l0.95,0l57.052,-372.989l-0,-2.897l486.207,-403.897" style="fill:none;stroke:#007aff;stroke-width:104.17px;"/><path d="M1978.93,1041.24l6.077,-493.807" style="fill:none;stroke:#007aff;stroke-width:87.5px;"/><ellipse cx="1288.44" cy="547.429" rx="685.933" ry="101.377" style="fill:none;stroke:#007aff;stroke-width:104.17px;"/><path d="M1972.1,1041.24c0,10.69 -11.219,20.995 -32.01,30.673c-2.401,1.118 -4.93,2.227 -7.584,3.328c-94.647,39.25 -348.444,67.376 -646.339,67.376c-378.577,0 -685.933,-45.425 -685.933,-101.377" style="fill:none;stroke:#007aff;stroke-width:104.17px;"/></g></svg>