<?xml version="1.0" encoding="UTF-8" standalone="no"?><!DOCTYPE svg PUBLIC "-//W3C//DTD SVG 1.1//EN" "http://www.w3.org/Graphics/SVG/1.1/DTD/svg11.dtd"><svg width="100%" height="100%" viewBox="0 0 4672 5589" version="1.1" xmlns="http://www.w3.org/2000/svg" xmlns:xlink="http://www.w3.org/1999/xlink" xml:space="preserve" xmlns:serif="http://www.serif.com/" style="fill-rule:evenodd;clip-rule:evenodd;stroke-linecap:round;stroke-linejoin:round;stroke-miterlimit:1.5;"><rect id="buchner-extractor-white-words" x="-0" y="-0" width="4671.41" height="5588.77" style="fill:none;"/><g><path d="M2007.44,1953.71c526.688,-0.235 973.376,-0.456 1500.06,0c36.475,0.032 72.859,7.389 106.547,21.348c102.922,42.648 171.97,145.76 172.038,257.238c0.458,742.894 0.578,1485.79 0,2228.68c-0.056,71.779 -28.853,142.425 -78.758,193.984c-51.948,53.669 -125.162,84.566 -199.827,84.601c-742.894,0.352 -1485.79,0.578 -2228.68,0c-107.509,-0.084 -208.281,-64.687 -253.075,-162.327c-16.676,-36.349 -25.491,-76.258 -25.51,-116.258c-0.352,-719.561 -0.237,-1349.12 -0,-2068.68c-0,-0 -0,-30 -112.98,-70.786c-0.297,746.751 -0.442,1433.5 0,2180.25c0.024,40.304 7.126,80.559 20.742,118.486c49.345,137.446 183.787,232.155 330.037,232.293c770.084,0.727 1540.17,0.327 2310.25,0c98.77,-0.042 194.774,-42.726 260.699,-116.443c57.193,-63.953 89.981,-148.477 90.08,-234.336c0.897,-770.084 0.576,-1540.17 0,-2310.25c-0.114,-152.781 -102.884,-290.964 -248.897,-335.47c-32.974,-10.051 -67.404,-15.269 -101.882,-15.309c-504.499,-0.574 -1039,-0.295 -1543.5,0l2.649,112.979Z" style="fill:#fff;stroke:#fff;stroke-width:29.17px;"/><path d="M881.802,3385.92l-236.174,-0.031" style="fill:none;stroke:#fff;stroke-width:108.33px;"/><path d="M881.827,2826.31l-236.174,-0.031" style="fill:none;stroke:#fff;stroke-width:108.33px;"/><path d="M440.047,3385.97c0.005,-56.71 46.049,-102.747 102.758,-102.743c56.71,0.004 102.747,46.048 102.743,102.758c-0.004,56.709 -46.049,102.747 -102.758,102.742c-56.709,-0.004 -102.747,-46.048 -102.743,-102.757Z" style="fill:#fff;stroke:#fff;stroke-width:62.5px;"/><path d="M881.802,3949.92l-236.174,-0.031" style="fill:none;stroke:#fff;stroke-width:108.33px;"/><path d="M440.047,3949.97c0.005,-56.71 46.049,-102.747 102.758,-102.743c56.71,0.004 102.747,46.048 102.743,102.758c-0.004,56.709 -46.049,102.747 -102.758,102.742c-56.709,-0.004 -102.747,-46.048 -102.743,-102.757Z" style="fill:#fff;stroke:#fff;stroke-width:62.5px;"/><path d="M440.091,2826.36c0.004,-56.71 46.048,-102.747 102.757,-102.743c56.71,0.004 102.747,46.048 102.743,102.758c-0.004,56.709 -46.049,102.747 -102.758,102.742c-56.709,-0.004 -102.747,-46.048 -102.742,-102.757Z" style="fill:#fff;stroke:#fff;stroke-width:62.5px;"/><path d="M3910.96,2631.75l236.221,-0.086" style="fill:none;stroke:#fff;stroke-width:108.33px;"/><path d="M3911.25,3192.79l236.174,-0.074" style="fill:none;stroke:#fff;stroke-width:108.33px;"/><path d="M3911.48,3752.41l236.174,-0.074" style="fill:none;stroke:#fff;stroke-width:108.33px;"/><path d="M4352.8,2633.23c0.021,56.709 -46.003,102.767 -102.713,102.788c-56.709,0.021 -102.767,-46.003 -102.788,-102.712c-0.021,-56.71 46.003,-102.768 102.712,-102.789c56.71,-0.021 102.768,46.003 102.789,102.713Z" style="fill:#fff;stroke:#fff;stroke-width:62.5px;"/><path d="M4353,3192.54c0.021,56.71 -46.003,102.768 -102.712,102.789c-56.71,0.021 -102.768,-46.003 -102.789,-102.713c-0.021,-56.709 46.003,-102.767 102.713,-102.788c56.709,-0.021 102.767,46.003 102.788,102.712Z" style="fill:#fff;stroke:#fff;stroke-width:62.5px;"/><path d="M4353.22,3752.16c0.021,56.71 -46.002,102.768 -102.712,102.789c-56.709,0.021 -102.767,-46.003 -102.788,-102.713c-0.021,-56.709 46.003,-102.767 102.712,-102.788c56.71,-0.021 102.767,46.003 102.788,102.712Z" style="fill:#fff;stroke:#fff;stroke-width:62.5px;"/><path d="M2735.36,1848.51l0.068,-236.175" style="fill:none;stroke:#fff;stroke-width:108.33px;"/><path d="M3295.34,1848.61l0.068,-236.174" style="fill:none;stroke:#fff;stroke-width:108.33px;"/><path d="M2735.38,1406.77c56.709,0.013 102.739,46.065 102.726,102.774c-0.013,56.71 -46.065,102.74 -102.774,102.726c-56.71,-0.013 -102.74,-46.065 -102.726,-102.774c0.013,-56.709 46.064,-102.739 102.774,-102.726Z" style="fill:#fff;stroke:#fff;stroke-width:62.5px;"/><path d="M3295.35,1406.89c56.709,0.013 102.74,46.065 102.726,102.774c-0.013,56.71 -46.065,102.74 -102.774,102.726c-56.709,-0.013 -102.739,-46.064 -102.726,-102.774c0.013,-56.709 46.065,-102.739 102.774,-102.726Z" style="fill:#fff;stroke:#fff;stroke-width:62.5px;"/><path d="M2156.32,4852.65l-0.068,236.174" style="fill:none;stroke:#fff;stroke-width:108.33px;"/><path d="M2156.31,5294.38c-56.709,-0.013 -102.739,-46.065 -102.726,-102.774c0.013,-56.709 46.065,-102.739 102.774,-102.726c56.71,0.013 102.74,46.065 102.726,102.774c-0.013,56.71 -46.065,102.74 -102.774,102.726Z" style="fill:#fff;stroke:#fff;stroke-width:62.5px;"/><path d="M2735.43,4852.65l-0.068,236.174" style="fill:none;stroke:#fff;stroke-width:108.33px;"/><path d="M2735.33,5294.38c-56.71,-0.013 -102.74,-46.065 -102.726,-102.774c0.013,-56.709 46.064,-102.739 102.774,-102.726c56.709,0.013 102.739,46.065 102.726,102.774c-0.013,56.71 -46.065,102.74 -102.774,102.726Z" style="fill:#fff;stroke:#fff;stroke-width:62.5px;"/><path d="M3295.4,4852.65l-0.068,236.174" style="fill:none;stroke:#fff;stroke-width:108.33px;"/><path d="M3295.31,5294.38c-56.709,-0.013 -102.739,-46.065 -102.726,-102.774c0.013,-56.709 46.065,-102.739 102.774,-102.726c56.709,0.013 102.74,46.065 102.726,102.774c-0.013,56.71 -46.065,102.74 -102.774,102.726Z" style="fill:#fff;stroke:#fff;stroke-width:62.5px;"/><path d="M1614.77,4852.65l-0.068,236.174" style="fill:none;stroke:#fff;stroke-width:108.33px;"/><path d="M1616.4,5294.38c-56.71,-0.013 -102.74,-46.065 -102.726,-102.774c0.013,-56.709 46.065,-102.739 102.774,-102.726c56.709,0.013 102.739,46.065 102.726,102.774c-0.013,56.71 -46.065,102.74 -102.774,102.726Z" style="fill:#fff;stroke:#fff;stroke-width:62.5px;"/></g><g><path d="M4350.53,4300.49c0.021,56.71 -46.003,102.768 -102.712,102.788c-56.709,0.021 -102.767,-46.002 -102.788,-102.712c-0.021,-56.709 46.003,-102.767 102.712,-102.788c56.709,-0.021 102.767,46.003 102.788,102.712Z" style="fill:#fff;stroke:#fff;stroke-width:62.5px;"/><path d="M3077.88,2678.21c-0,-78.263 -63.54,-141.802 -141.802,-141.802c-78.263,0 -141.802,63.539 -141.802,141.802l-0,1218.6c-0,78.263 63.539,141.802 141.802,141.802c78.262,0 141.802,-63.539 141.802,-141.802l-0,-1218.6Z" style="fill:#fff;stroke:#fff;stroke-width:62.5px;"/><path d="M3621.68,2678.21c0,-78.263 -63.539,-141.802 -141.802,-141.802c-78.262,0 -141.802,63.539 -141.802,141.802l0,1218.6c0,78.263 63.54,141.802 141.802,141.802c78.263,0 141.802,-63.539 141.802,-141.802l0,-1218.6Z" style="fill:#fff;stroke:#fff;stroke-width:62.5px;"/><path d="M1991.83,2678.21c-0,-78.263 -63.54,-141.802 -141.802,-141.802c-78.263,0 -141.802,63.539 -141.802,141.802l-0,1218.6c-0,78.263 63.539,141.802 141.802,141.802c78.262,0 141.802,-63.539 141.802,-141.802l-0,-1218.6Z" style="fill:#fff;stroke:#fff;stroke-width:62.5px;"/><path d="M1448.83,2709.21c-0,-78.263 -74.621,294.448 -152.884,294.448c-78.263,-0 -130.72,-223.711 -130.72,-145.448l-0,1038.6c-0,78.263 63.539,141.802 141.802,141.802c78.262,0 141.802,-63.539 141.802,-141.802l-0,-1187.6Z" style="fill:#fff;stroke:#fff;stroke-width:62.5px;"/><path d="M2534.97,2678.21c0,-78.263 -63.539,-141.802 -141.802,-141.802c-78.263,0 -141.802,63.539 -141.802,141.802l-0,1218.6c-0,78.263 63.539,141.802 141.802,141.802c78.263,0 141.802,-63.539 141.802,-141.802l0,-1218.6Z" style="fill:#fff;stroke:#fff;stroke-width:62.5px;"/><path d="M1307.03,4038.61c0.245,72.565 26.077,152.38 79.336,203.606c73.518,70.71 192.159,82.07 286.483,54.568c35.165,-10.253 69.832,-26.736 96.962,-51.774c17.737,-16.368 30.783,-36.73 41.606,-58.118c22.754,-44.964 38.613,-97.56 38.613,-148.282" style="fill:none;stroke:#fff;stroke-width:108.33px;"/><path d="M2393.17,4038.61c0.099,29.293 34.497,47.641 54.328,61.762c36.969,26.325 75.176,53.095 87.592,99.526c13.166,49.239 -3.445,102.045 -25.654,146.022c-3.258,6.452 -6.756,12.782 -10.361,19.046c-19.043,33.093 -56.456,77.082 -28.419,115.935c8.048,11.152 19.399,20.811 30.368,28.79c18.58,13.517 34.656,21.979 55.106,33.045c36.611,19.813 66.947,37.993 109.568,34.403c44.495,-3.747 86.493,-20.041 128.577,-33.539c24.149,-7.746 50.527,-16.077 75.97,-8.891c26.814,7.572 39.887,32.792 56.226,52.8c10.774,13.196 19.031,23.265 32.35,32.797c29.592,21.177 66.539,26.06 101.65,30.903c13.936,1.922 27.954,3.354 41.999,4.176c51.721,3.027 113.361,-1.776 149.656,-43.92c8.717,-10.122 15.112,-21.689 19.967,-34.075c10.277,-26.216 13.122,-55.675 13.193,-83.613c0.075,-29.291 0.124,-59.498 -5.152,-88.501c-2.019,-11.096 -4.949,-22.29 -9.26,-32.745c-3.437,-8.333 -7.836,-16.238 -13.557,-23.232c-21.291,-26.029 -55.259,-27.601 -86.38,-23.164c-9.058,1.292 -18.042,3.141 -26.93,5.314c-18.928,4.627 -37.632,10.129 -56.478,15.079c-47.783,12.549 -111.716,30.129 -151.452,-10.405c-27.787,-28.345 -24.361,-74.145 -20.395,-110.138c6.897,-62.597 17.514,-124.39 20.488,-187.375" style="fill:none;stroke:#fff;stroke-width:108.33px;"/><path d="M2393.17,2536.22c-0.308,-82.613 -33.642,-170.761 -100.61,-221.978c-104.792,-80.144 -266.795,-79.431 -362.524,15.359c-23.413,23.184 -39.684,52.124 -52.197,82.355c-16.121,38.944 -27.684,82.049 -27.669,124.457" style="fill:none;stroke:#fff;stroke-width:108.33px;"/><path d="M3479.08,2536.02c-0.273,-73.201 -26.544,-151.931 -79.585,-203.952c-101.212,-99.268 -281.412,-102.528 -383.446,-2.659c-29.868,29.235 -48.566,68.352 -61.693,107.509c-10.65,31.766 -18.288,65.633 -18.276,99.294" style="fill:none;stroke:#fff;stroke-width:108.33px;"/><path d="M4247.78,4293.84c-33.547,-0.466 -67.079,-0.146 -100.603,0.555c-90.757,1.9 -181.457,6.603 -272.252,6.134c-51.686,-0.266 -103.981,-1.524 -155.225,-9.311c-40.202,-6.109 -80.3,-16.127 -115.577,-37.03c-37.074,-21.967 -67.735,-58.75 -86.9,-97.032c-14.676,-29.315 -22.055,-46.426 -31.271,-77.704c-8.946,-30.36 -15.566,-63.03 -15.619,-94.842" style="fill:none;stroke:#fff;stroke-width:108.33px;"/></g><g transform="matrix(9.07257,0,0,9.07257,-186416,-179399)"><text x="20604.1px" y="19872.6px" style="font-family:'ArialRoundedMTBold', 'Arial Rounded MT Bold', sans-serif;font-size:50px;fill:#fff;">BioSim</text><text x="20604.1px" y="19922.6px" style="font-family:'ArialRoundedMTBold', 'Arial Rounded MT Bold', sans-serif;font-size:50px;fill:#fff;">Extr<tspan x="20701.9px 20731.6px " y="19922.6px 19922.6px ">ac</tspan>tor</text></g><g><path d="M605.073,1583.38l-0,493.807l535.791,451.943l0,2.139l80.556,498.822l172.91,-138.141l0.95,-0l57.052,-372.989l0,-2.897l486.207,-403.897" style="fill:none;stroke:#007aff;stroke-width:104.17px;"/><path d="M1982.26,2077.19l6.078,-493.807" style="fill:none;stroke:#007aff;stroke-width:87.5px;"/><ellipse cx="1291.77" cy="1583.38" rx="685.933" ry="101.377" style="fill:none;stroke:#007aff;stroke-width:104.17px;"/><path d="M1975.42,2077.19c-0,10.69 -11.219,20.995 -32.011,30.673c-2.401,1.118 -4.93,2.227 -7.584,3.328c-94.647,39.249 -348.444,67.376 -646.339,67.376c-378.576,0 -685.933,-45.426 -685.933,-101.377" style="fill:none;stroke:#007aff;stroke-width:104.17px;"/></g></svg>