<?xml version="1.0" encoding="UTF-8" standalone="no"?><!DOCTYPE svg PUBLIC "-//W3C//DTD SVG 1.1//EN" "http://www.w3.org/Graphics/SVG/1.1/DTD/svg11.dtd"><svg width="100%" height="100%" viewBox="0 0 4509 4356" version="1.1" xmlns="http://www.w3.org/2000/svg" xmlns:xlink="http://www.w3.org/1999/xlink" xml:space="preserve" xmlns:serif="http://www.serif.com/" style="fill-rule:evenodd;clip-rule:evenodd;stroke-linecap:round;stroke-linejoin:round;stroke-miterlimit:1.5;"><rect id="prepmd-white" x="0" y="0" width="4508.79" height="4355.13" style="fill:none;"/><path d="M672.756,2223.19l-236.174,-0.03" style="fill:none;stroke:#fff;stroke-width:108.33px;"/><path d="M672.781,1663.58l-236.175,-0.03" style="fill:none;stroke:#fff;stroke-width:108.33px;"/><path d="M231.001,2223.24c0.004,-56.71 46.048,-102.747 102.758,-102.743c56.709,0.005 102.746,46.049 102.742,102.758c-0.004,56.71 -46.048,102.747 -102.758,102.743c-56.709,-0.004 -102.746,-46.049 -102.742,-102.758Z" style="fill:#fff;stroke:#fff;stroke-width:62.5px;"/><path d="M672.756,2787.19l-236.174,-0.03" style="fill:none;stroke:#fff;stroke-width:108.33px;"/><path d="M231.001,2787.24c0.004,-56.71 46.048,-102.747 102.758,-102.743c56.709,0.005 102.746,46.049 102.742,102.758c-0.004,56.71 -46.048,102.747 -102.758,102.743c-56.709,-0.004 -102.746,-46.049 -102.742,-102.758Z" style="fill:#fff;stroke:#fff;stroke-width:62.5px;"/><path d="M231.044,1663.63c0.004,-56.71 46.049,-102.747 102.758,-102.743c56.709,0.004 102.747,46.049 102.742,102.758c-0.004,56.709 -46.048,102.747 -102.757,102.743c-56.71,-0.005 -102.747,-46.049 -102.743,-102.758Z" style="fill:#fff;stroke:#fff;stroke-width:62.5px;"/><path d="M3701.91,1469.02l236.22,-0.085" style="fill:none;stroke:#fff;stroke-width:108.33px;"/><path d="M3702.2,2030.06l236.175,-0.075" style="fill:none;stroke:#fff;stroke-width:108.33px;"/><path d="M3702.43,2589.68l236.175,-0.075" style="fill:none;stroke:#fff;stroke-width:108.33px;"/><path d="M4143.75,1470.5c0.021,56.709 -46.003,102.767 -102.712,102.788c-56.709,0.021 -102.767,-46.003 -102.788,-102.712c-0.021,-56.71 46.003,-102.767 102.712,-102.788c56.709,-0.021 102.767,46.003 102.788,102.712Z" style="fill:#fff;stroke:#fff;stroke-width:62.5px;"/><path d="M4143.95,2029.82c0.021,56.709 -46.003,102.767 -102.712,102.788c-56.709,0.021 -102.767,-46.003 -102.788,-102.712c-0.021,-56.71 46.003,-102.767 102.712,-102.788c56.709,-0.021 102.767,46.002 102.788,102.712Z" style="fill:#fff;stroke:#fff;stroke-width:62.5px;"/><path d="M4144.17,2589.43c0.021,56.709 -46.003,102.767 -102.712,102.788c-56.71,0.021 -102.768,-46.003 -102.788,-102.712c-0.021,-56.71 46.002,-102.767 102.712,-102.788c56.709,-0.021 102.767,46.002 102.788,102.712Z" style="fill:#fff;stroke:#fff;stroke-width:62.5px;"/><path d="M1966.7,685.663l0.069,-236.174" style="fill:none;stroke:#fff;stroke-width:108.33px;"/><path d="M2526.32,685.781l0.069,-236.174" style="fill:none;stroke:#fff;stroke-width:108.33px;"/><path d="M3086.29,685.882l0.068,-236.174" style="fill:none;stroke:#fff;stroke-width:108.33px;"/><path d="M1966.72,243.908c56.71,0.013 102.74,46.065 102.726,102.774c-0.013,56.71 -46.064,102.74 -102.774,102.726c-56.709,-0.013 -102.739,-46.064 -102.726,-102.774c0.013,-56.709 46.065,-102.739 102.774,-102.726Z" style="fill:#fff;stroke:#fff;stroke-width:62.5px;"/><path d="M2526.33,244.044c56.71,0.013 102.74,46.065 102.726,102.774c-0.013,56.71 -46.064,102.74 -102.774,102.727c-56.709,-0.014 -102.739,-46.065 -102.726,-102.775c0.013,-56.709 46.065,-102.739 102.774,-102.726Z" style="fill:#fff;stroke:#fff;stroke-width:62.5px;"/><path d="M3086.31,244.161c56.709,0.014 102.739,46.065 102.726,102.775c-0.014,56.709 -46.065,102.739 -102.775,102.726c-56.709,-0.014 -102.739,-46.065 -102.726,-102.775c0.014,-56.709 46.065,-102.739 102.775,-102.726Z" style="fill:#fff;stroke:#fff;stroke-width:62.5px;"/><path d="M1947.28,3689.91l-0.069,236.174" style="fill:none;stroke:#fff;stroke-width:108.33px;"/><path d="M1947.26,4131.65c-56.71,-0.014 -102.74,-46.065 -102.727,-102.775c0.014,-56.709 46.065,-102.739 102.775,-102.726c56.709,0.014 102.739,46.065 102.726,102.775c-0.013,56.709 -46.065,102.739 -102.774,102.726Z" style="fill:#fff;stroke:#fff;stroke-width:62.5px;"/><path d="M2526.39,3689.91l-0.069,236.174" style="fill:none;stroke:#fff;stroke-width:108.33px;"/><path d="M2526.29,4131.65c-56.709,-0.014 -102.739,-46.065 -102.726,-102.775c0.013,-56.709 46.065,-102.739 102.774,-102.726c56.71,0.014 102.74,46.065 102.726,102.775c-0.013,56.709 -46.064,102.739 -102.774,102.726Z" style="fill:#fff;stroke:#fff;stroke-width:62.5px;"/><path d="M3086.36,3689.91l-0.068,236.174" style="fill:none;stroke:#fff;stroke-width:108.33px;"/><path d="M3086.26,4131.65c-56.709,-0.014 -102.739,-46.065 -102.726,-102.775c0.014,-56.709 46.065,-102.739 102.775,-102.726c56.709,0.014 102.739,46.065 102.726,102.775c-0.014,56.709 -46.065,102.739 -102.775,102.726Z" style="fill:#fff;stroke:#fff;stroke-width:62.5px;"/><path d="M1405.72,3689.91l-0.068,236.174" style="fill:none;stroke:#fff;stroke-width:108.33px;"/><path d="M1407.36,4131.65c-56.709,-0.014 -102.739,-46.065 -102.726,-102.775c0.013,-56.709 46.065,-102.739 102.774,-102.726c56.71,0.014 102.74,46.065 102.727,102.775c-0.014,56.709 -46.065,102.739 -102.775,102.726Z" style="fill:#fff;stroke:#fff;stroke-width:62.5px;"/><path d="M4141.49,3137.76c0.021,56.709 -46.003,102.767 -102.712,102.788c-56.71,0.021 -102.768,-46.003 -102.789,-102.712c-0.021,-56.71 46.003,-102.768 102.713,-102.789c56.709,-0.021 102.767,46.003 102.788,102.713Z" style="fill:#fff;stroke:#fff;stroke-width:62.5px;"/><path d="M2868.83,1515.48c0,-78.262 -63.539,-141.802 -141.802,-141.802c-78.262,0 -141.802,63.54 -141.802,141.802l0,1218.6c0,78.263 63.54,141.803 141.802,141.803c78.263,-0 141.802,-63.54 141.802,-141.803l0,-1218.6Z" style="fill:#fff;stroke:#fff;stroke-width:62.5px;"/><path d="M3412.64,1515.48c-0,-78.262 -63.539,-141.802 -141.802,-141.802c-78.263,0 -141.802,63.54 -141.802,141.802l-0,1218.6c-0,78.263 63.539,141.803 141.802,141.803c78.263,-0 141.802,-63.54 141.802,-141.803l-0,-1218.6Z" style="fill:#fff;stroke:#fff;stroke-width:62.5px;"/><path d="M2325.92,1515.48c-0,-78.262 -63.54,-141.802 -141.803,-141.802c-78.262,0 -141.802,63.54 -141.802,141.802l0,1218.6c0,78.263 63.54,141.803 141.802,141.803c78.263,-0 141.803,-63.54 141.803,-141.803l-0,-1218.6Z" style="fill:#fff;stroke:#fff;stroke-width:62.5px;"/><path d="M2184.12,2875.88c0.099,29.292 34.497,47.64 54.328,61.761c36.969,26.326 75.176,53.096 87.592,99.527c13.167,49.238 -3.445,102.044 -25.653,146.022c-3.258,6.451 -6.756,12.782 -10.361,19.046c-19.044,33.092 -56.456,77.081 -28.419,115.934c8.047,11.153 19.399,20.811 30.367,28.791c18.58,13.516 34.656,21.978 55.106,33.045c36.612,19.812 66.948,37.992 109.568,34.403c44.496,-3.748 86.494,-20.042 128.577,-33.54c24.149,-7.746 50.527,-16.076 75.971,-8.891c26.813,7.572 39.887,32.792 56.225,52.801c10.775,13.195 19.031,23.265 32.35,32.796c29.592,21.177 66.54,26.06 101.65,30.903c13.937,1.923 27.955,3.355 41.999,4.177c51.722,3.026 113.361,-1.776 149.657,-43.921c8.717,-10.122 15.111,-21.689 19.967,-34.074c10.277,-26.217 13.121,-55.676 13.192,-83.614c0.075,-29.29 0.125,-59.498 -5.152,-88.501c-2.019,-11.096 -4.949,-22.29 -9.26,-32.744c-3.436,-8.334 -7.836,-16.239 -13.557,-23.233c-21.29,-26.029 -55.258,-27.601 -86.379,-23.163c-9.059,1.291 -18.043,3.14 -26.93,5.313c-18.928,4.628 -37.632,10.129 -56.479,15.079c-47.782,12.55 -111.716,30.13 -151.452,-10.405c-27.787,-28.345 -24.36,-74.144 -20.394,-110.137c6.896,-62.597 17.513,-124.39 20.487,-187.375" style="fill:none;stroke:#fff;stroke-width:108.33px;"/><path d="M2184.12,1373.49c-0.308,-82.613 -33.641,-170.762 -100.609,-221.978c-104.793,-80.145 -266.796,-79.432 -362.524,15.359c-23.413,23.183 -39.684,52.124 -52.198,82.354" style="fill:none;stroke:#fff;stroke-width:108.33px;"/><path d="M3270.03,1373.29c-0.273,-73.201 -26.544,-151.93 -79.584,-203.952c-101.212,-99.268 -281.413,-102.528 -383.446,-2.659c-29.868,29.235 -48.566,68.352 -61.694,107.509c-10.649,31.767 -18.288,65.633 -18.276,99.295" style="fill:none;stroke:#fff;stroke-width:108.33px;"/><path d="M4038.74,3131.11c-124.367,-1.725 -248.522,7.331 -372.856,6.69c-51.685,-0.267 -103.98,-1.525 -155.224,-9.312c-40.202,-6.109 -80.301,-16.127 -115.578,-37.029c-37.074,-21.968 -67.734,-58.75 -86.9,-97.032c-14.676,-29.316 -22.055,-46.427 -31.271,-77.704c-8.946,-30.361 -15.566,-63.031 -15.618,-94.842" style="fill:none;stroke:#fff;stroke-width:108.33px;"/><g><path d="M1365.67,1419.67c153.39,-61.464 329.49,17.324 393.006,175.833c63.515,158.509 -9.452,337.099 -162.843,398.564c-153.39,61.464 -329.49,-17.324 -393.005,-175.834c-63.516,-158.509 9.452,-337.099 162.842,-398.563Z" style="fill:none;stroke:#007aff;stroke-width:183.33px;"/><g><path d="M1329.98,1395.56l-8.717,-72.939" style="fill:none;stroke:#007aff;stroke-width:183.33px;"/><path d="M1374.84,1377.58l-44.062,-58.775" style="fill:none;stroke:#007aff;stroke-width:183.33px;"/></g><g><path d="M1586.78,2036.44l44.062,58.775" style="fill:none;stroke:#007aff;stroke-width:183.33px;"/><path d="M1631.65,2018.47l8.716,72.938" style="fill:none;stroke:#007aff;stroke-width:183.33px;"/></g><g><path d="M1180.05,1854.54l-71.046,7.295" style="fill:none;stroke:#007aff;stroke-width:183.33px;"/><path d="M1161.46,1808.18l-56.4,43.817" style="fill:none;stroke:#007aff;stroke-width:183.33px;"/></g><g><path d="M1800.17,1605.84l56.4,-43.816" style="fill:none;stroke:#007aff;stroke-width:183.33px;"/><path d="M1781.58,1559.49l71.045,-7.295" style="fill:none;stroke:#007aff;stroke-width:183.33px;"/></g><g><path d="M1160.94,1592.12l-56.415,-46.416" style="fill:none;stroke:#007aff;stroke-width:183.33px;"/><path d="M1179.52,1546.62l-71.049,-10.569" style="fill:none;stroke:#007aff;stroke-width:183.33px;"/></g><g><path d="M1781.15,1869.39l71.049,10.569" style="fill:none;stroke:#007aff;stroke-width:183.33px;"/><path d="M1799.72,1823.89l56.415,46.416" style="fill:none;stroke:#007aff;stroke-width:183.33px;"/></g><g><path d="M1591.99,1386.09l44.059,-56.732" style="fill:none;stroke:#007aff;stroke-width:183.33px;"/><path d="M1636.86,1406.15l8.713,-72.535" style="fill:none;stroke:#007aff;stroke-width:183.33px;"/></g><g><path d="M1335.21,2015.07l-8.713,72.534" style="fill:none;stroke:#007aff;stroke-width:183.33px;"/><path d="M1380.08,2035.13l-44.06,56.733" style="fill:none;stroke:#007aff;stroke-width:183.33px;"/></g></g><g><path d="M1464.91,2376.5c155.039,28.215 257.241,181.195 228.084,341.408c-29.156,160.214 -178.7,267.38 -333.74,239.165c-155.04,-28.215 -257.241,-181.195 -228.084,-341.409c29.156,-160.213 178.7,-267.379 333.74,-239.164Z" style="fill:none;stroke:#368d00;stroke-width:183.33px;"/><g><path d="M1448.33,2338.92l29.977,-63.315" style="fill:none;stroke:#368d00;stroke-width:183.33px;"/><path d="M1493.67,2347.17l-5.749,-69.816" style="fill:none;stroke:#368d00;stroke-width:183.33px;"/></g><g><path d="M1330.44,2986.7l5.749,69.816" style="fill:none;stroke:#368d00;stroke-width:183.33px;"/><path d="M1375.79,2994.95l-29.977,63.315" style="fill:none;stroke:#368d00;stroke-width:183.33px;"/></g><g><path d="M1094.35,2633.42l-61.065,-30.164" style="fill:none;stroke:#368d00;stroke-width:183.33px;"/><path d="M1102.87,2586.56l-67.774,6.756" style="fill:none;stroke:#368d00;stroke-width:183.33px;"/></g><g><path d="M1721.25,2747.32l67.774,-6.756" style="fill:none;stroke:#368d00;stroke-width:183.33px;"/><path d="M1729.76,2700.45l61.065,30.164" style="fill:none;stroke:#368d00;stroke-width:183.33px;"/></g><g><path d="M1212.1,2411.85l-21.995,-66.106" style="fill:none;stroke:#368d00;stroke-width:183.33px;"/><path d="M1250.19,2384.54l-52.002,-44.589" style="fill:none;stroke:#368d00;stroke-width:183.33px;"/></g><g><path d="M1572.15,2950.46l52.001,44.589" style="fill:none;stroke:#368d00;stroke-width:183.33px;"/><path d="M1610.24,2923.15l21.995,66.105" style="fill:none;stroke:#368d00;stroke-width:183.33px;"/></g><g><path d="M1664.68,2464.24l64.364,-23.447" style="fill:none;stroke:#368d00;stroke-width:183.33px;"/><path d="M1690.73,2503.2l43.844,-54.143" style="fill:none;stroke:#368d00;stroke-width:183.33px;"/></g><g><path d="M1138.17,2841.78l-43.844,54.144" style="fill:none;stroke:#368d00;stroke-width:183.33px;"/><path d="M1164.21,2880.74l-64.364,23.447" style="fill:none;stroke:#368d00;stroke-width:183.33px;"/></g></g><g><path d="M1210.9,295.937c203.955,21.557 351.455,210.169 329.178,420.93c-22.276,210.76 -205.947,364.37 -409.901,342.813c-203.955,-21.557 -351.455,-210.17 -329.178,-420.93c22.276,-210.761 205.947,-364.37 409.901,-342.813Z" style="fill:none;stroke:#f00;stroke-width:183.33px;"/><g><path d="M1185.72,248.773l32.754,-85.083" style="fill:none;stroke:#f00;stroke-width:183.33px;"/><path d="M1245.38,255.079l-14.243,-90.051" style="fill:none;stroke:#f00;stroke-width:183.33px;"/></g><g><path d="M1095.65,1100.93l14.243,90.05" style="fill:none;stroke:#f00;stroke-width:183.33px;"/><path d="M1155.31,1107.23l-32.754,85.083" style="fill:none;stroke:#f00;stroke-width:183.33px;"/></g><g><path d="M754.937,665.368l-82.181,-33.216" style="fill:none;stroke:#f00;stroke-width:183.33px;"/><path d="M761.436,603.719l-87.301,15.352" style="fill:none;stroke:#f00;stroke-width:183.33px;"/></g><g><path d="M1579.6,752.286l87.301,-15.351" style="fill:none;stroke:#f00;stroke-width:183.33px;"/><path d="M1586.1,690.638l82.181,33.215" style="fill:none;stroke:#f00;stroke-width:183.33px;"/></g><g><path d="M886.225,366.371l-34.967,-83.656" style="fill:none;stroke:#f00;stroke-width:183.33px;"/><path d="M933.005,327.225l-71.82,-52.817" style="fill:none;stroke:#f00;stroke-width:183.33px;"/></g><g><path d="M1405.83,1030.41l71.821,52.816" style="fill:none;stroke:#f00;stroke-width:183.33px;"/><path d="M1452.61,991.267l34.967,83.655" style="fill:none;stroke:#f00;stroke-width:183.33px;"/></g><g><path d="M1478.69,390.399l81.255,-36.682" style="fill:none;stroke:#f00;stroke-width:183.33px;"/><path d="M1516.28,438.438l51.643,-74.528" style="fill:none;stroke:#f00;stroke-width:183.33px;"/></g><g><path d="M832.043,931.519l-51.642,74.527" style="fill:none;stroke:#f00;stroke-width:183.33px;"/><path d="M869.632,979.558l-81.255,36.682" style="fill:none;stroke:#f00;stroke-width:183.33px;"/></g></g><path d="M1818.68,791.316c85.964,-0.039 169.263,-0.077 250.768,-0.111c417.868,-0.179 788.571,-0.271 1229.3,0.111c36.475,0.032 72.858,7.388 106.546,21.348c102.923,42.648 171.97,145.76 172.039,257.237c0.457,742.894 0.578,1485.79 -0,2228.68c-0.056,71.779 -28.853,142.426 -78.759,193.985c-51.947,53.668 -125.162,84.565 -199.826,84.601c-742.894,0.351 -1485.79,0.577 -2228.68,-0c-107.508,-0.084 -208.281,-64.688 -253.075,-162.328c-16.675,-36.349 -25.49,-76.257 -25.51,-116.258c-0.351,-719.56 -0.237,-1406.12 0,-2125.68c0,0 -26.969,2.264 -54.945,-7.835c-24.181,-8.73 -49.115,-34.731 -58.034,-37.95c-0.297,746.751 -0.442,1465.5 0,2212.25c0.024,40.304 7.125,80.559 20.742,118.486c49.345,137.445 183.786,232.155 330.037,232.293c770.084,0.726 1540.17,0.327 2310.25,-0c98.77,-0.042 194.773,-42.727 260.698,-116.444c57.193,-63.952 89.981,-148.476 90.081,-234.335c0.896,-770.084 0.576,-1540.17 0,-2310.25c-0.114,-152.782 -102.885,-290.964 -248.897,-335.471c-32.975,-10.051 -67.404,-15.269 -101.882,-15.308c-422.74,-0.482 -846.885,-0.364 -1270.08,-0.139c-81.847,0.043 -163.658,0.091 -245.417,0.139c0,-0 6.917,36.252 6.48,55.836c-0.421,18.877 -11.831,57.143 -11.831,57.143Z" style="fill:#fff;stroke:#fff;stroke-width:29.17px;"/></svg>