<?xml version="1.0" encoding="UTF-8" standalone="no"?><!DOCTYPE svg PUBLIC "-//W3C//DTD SVG 1.1//EN" "http://www.w3.org/Graphics/SVG/1.1/DTD/svg11.dtd"><svg width="100%" height="100%" viewBox="0 0 4820 4625" version="1.1" xmlns="http://www.w3.org/2000/svg" xmlns:xlink="http://www.w3.org/1999/xlink" xml:space="preserve" xmlns:serif="http://www.serif.com/" style="fill-rule:evenodd;clip-rule:evenodd;stroke-linecap:round;stroke-linejoin:round;stroke-miterlimit:1.5;"><rect id="schema-white" x="0" y="0" width="4819.57" height="4624.41" style="fill:none;"/><g><path d="M3985.94,1131.76c-0,-193.6 -157.179,-350.779 -350.779,-350.779l-2310.25,0c-193.601,0 -350.779,157.179 -350.779,350.779l-0,2310.25c-0,193.601 157.178,350.779 350.779,350.779l2310.25,0c193.6,0 350.779,-157.178 350.779,-350.779l-0,-2310.25Zm-112.979,40.786c-0,-153.756 -124.83,-278.585 -278.586,-278.585l-2228.68,-0c-153.755,-0 -278.585,124.829 -278.585,278.585l-0,2228.68c-0,153.755 124.83,278.585 278.585,278.585l2228.68,0c153.756,0 278.586,-124.83 278.586,-278.585l-0,-2228.68Z" style="fill:#fefefe;stroke:#fcfcfc;stroke-width:29.17px;"/><path d="M968.668,2326.17l-236.175,-0.031" style="fill:none;stroke:#fcfcfc;stroke-width:108.33px;"/><path d="M968.692,1766.56l-236.174,-0.031" style="fill:none;stroke:#fcfcfc;stroke-width:108.33px;"/><path d="M526.913,2326.23c0.004,-56.71 46.048,-102.747 102.757,-102.743c56.71,0.004 102.747,46.049 102.743,102.758c-0.004,56.709 -46.048,102.747 -102.758,102.743c-56.709,-0.005 -102.747,-46.049 -102.742,-102.758Z" style="fill:#fefefe;stroke:#fcfcfc;stroke-width:62.5px;"/><path d="M968.668,2890.17l-236.175,-0.031" style="fill:none;stroke:#fcfcfc;stroke-width:108.33px;"/><path d="M526.913,2890.23c0.004,-56.71 46.048,-102.747 102.757,-102.743c56.71,0.004 102.747,46.049 102.743,102.758c-0.004,56.709 -46.048,102.747 -102.758,102.743c-56.709,-0.005 -102.747,-46.049 -102.742,-102.758Z" style="fill:#fefefe;stroke:#fcfcfc;stroke-width:62.5px;"/><path d="M526.956,1766.61c0.004,-56.71 46.048,-102.747 102.758,-102.743c56.709,0.004 102.746,46.049 102.742,102.758c-0.004,56.709 -46.048,102.747 -102.758,102.742c-56.709,-0.004 -102.746,-46.048 -102.742,-102.757Z" style="fill:#fefefe;stroke:#fcfcfc;stroke-width:62.5px;"/><path d="M3997.82,1572.01l96.686,-0" style="fill:none;stroke:#fcfcfc;stroke-width:108.33px;"/><path d="M1701.58,788.604l0.058,-236.22" style="fill:none;stroke:#fcfcfc;stroke-width:108.33px;"/><path d="M2262.62,788.645l0.068,-236.174" style="fill:none;stroke:#fcfcfc;stroke-width:108.33px;"/><path d="M2822.23,788.763l0.068,-236.175" style="fill:none;stroke:#fcfcfc;stroke-width:108.33px;"/><path d="M3382.2,788.864l0.069,-236.174" style="fill:none;stroke:#fcfcfc;stroke-width:108.33px;"/><path d="M2262.63,346.89c56.709,0.013 102.739,46.065 102.726,102.774c-0.013,56.71 -46.065,102.74 -102.774,102.726c-56.709,-0.013 -102.74,-46.065 -102.726,-102.774c0.013,-56.709 46.065,-102.739 102.774,-102.726Z" style="fill:#fefefe;stroke:#fcfcfc;stroke-width:62.5px;"/><path d="M2822.25,347.026c56.709,0.013 102.739,46.065 102.726,102.774c-0.013,56.71 -46.065,102.74 -102.774,102.726c-56.709,-0.013 -102.739,-46.065 -102.726,-102.774c0.013,-56.709 46.065,-102.739 102.774,-102.726Z" style="fill:#fefefe;stroke:#fcfcfc;stroke-width:62.5px;"/><path d="M3382.22,347.143c56.71,0.013 102.74,46.065 102.726,102.774c-0.013,56.71 -46.064,102.74 -102.774,102.727c-56.709,-0.014 -102.739,-46.065 -102.726,-102.775c0.013,-56.709 46.065,-102.739 102.774,-102.726Z" style="fill:#fefefe;stroke:#fcfcfc;stroke-width:62.5px;"/><path d="M2243.19,3792.9l-0.068,236.174" style="fill:none;stroke:#fcfcfc;stroke-width:108.33px;"/><path d="M2243.17,4234.63c-56.709,-0.013 -102.739,-46.064 -102.726,-102.774c0.013,-56.709 46.065,-102.739 102.774,-102.726c56.71,0.013 102.74,46.065 102.727,102.774c-0.014,56.71 -46.065,102.74 -102.775,102.726Z" style="fill:#fefefe;stroke:#fcfcfc;stroke-width:62.5px;"/><path d="M2822.3,3792.9l-0.068,236.174" style="fill:none;stroke:#fcfcfc;stroke-width:108.33px;"/><path d="M2822.2,4234.63c-56.709,-0.013 -102.739,-46.064 -102.726,-102.774c0.013,-56.709 46.065,-102.739 102.774,-102.726c56.709,0.013 102.739,46.065 102.726,102.774c-0.013,56.71 -46.065,102.74 -102.774,102.726Z" style="fill:#fefefe;stroke:#fcfcfc;stroke-width:62.5px;"/><path d="M3382.27,3792.9l-0.069,236.174" style="fill:none;stroke:#fcfcfc;stroke-width:108.33px;"/><path d="M3382.17,4234.63c-56.709,-0.013 -102.739,-46.064 -102.726,-102.774c0.013,-56.709 46.065,-102.739 102.774,-102.726c56.71,0.013 102.74,46.065 102.726,102.774c-0.013,56.71 -46.064,102.74 -102.774,102.726Z" style="fill:#fefefe;stroke:#fcfcfc;stroke-width:62.5px;"/><path d="M1701.63,3792.9l-0.069,236.174" style="fill:none;stroke:#fcfcfc;stroke-width:108.33px;"/><path d="M1703.27,4234.63c-56.709,-0.013 -102.739,-46.064 -102.726,-102.774c0.013,-56.709 46.065,-102.739 102.774,-102.726c56.71,0.013 102.74,46.065 102.726,102.774c-0.013,56.71 -46.065,102.74 -102.774,102.726Z" style="fill:#fefefe;stroke:#fcfcfc;stroke-width:62.5px;"/></g><path d="M3164.74,1618.46c0,-78.262 -63.539,-141.802 -141.802,-141.802c-78.263,0 -141.802,63.54 -141.802,141.802l-0,1218.6c-0,78.263 63.539,141.802 141.802,141.802c78.263,0 141.802,-63.539 141.802,-141.802l0,-1218.6Z" style="fill:#fff;stroke:#fff;stroke-width:62.5px;"/><path d="M3708.55,1618.46c-0,-78.262 -63.54,-141.802 -141.802,-141.802c-78.263,0 -141.803,63.54 -141.803,141.802l0,1218.6c0,78.263 63.54,141.802 141.803,141.802c78.262,0 141.802,-63.539 141.802,-141.802l-0,-1218.6Z" style="fill:#fff;stroke:#fff;stroke-width:62.5px;"/><path d="M2078.69,1618.46c0,-78.262 -63.539,-141.802 -141.802,-141.802c-78.263,0 -141.802,63.54 -141.802,141.802l-0,1218.6c-0,78.263 63.539,141.802 141.802,141.802c78.263,0 141.802,-63.539 141.802,-141.802l0,-1218.6Z" style="fill:#fff;stroke:#fff;stroke-width:62.5px;"/><path d="M1535.69,1618.46c0,-78.262 -63.539,-141.802 -141.802,-141.802c-78.263,0 -141.802,63.54 -141.802,141.802l-0,1218.6c-0,78.263 63.539,141.802 141.802,141.802c78.263,0 141.802,-63.539 141.802,-141.802l0,-1218.6Z" style="fill:#fff;stroke:#fff;stroke-width:62.5px;"/><path d="M2621.84,1618.46c0,-78.262 -63.539,-141.802 -141.802,-141.802c-78.263,0 -141.802,63.54 -141.802,141.802l0,1218.6c0,78.263 63.539,141.802 141.802,141.802c78.263,0 141.802,-63.539 141.802,-141.802l0,-1218.6Z" style="fill:#fff;stroke:#fff;stroke-width:62.5px;"/><path d="M1393.89,2978.86c0.245,72.566 26.077,152.381 79.337,203.606c73.517,70.71 192.158,82.07 286.482,54.568c35.165,-10.252 69.832,-26.736 96.962,-51.773c17.737,-16.368 30.783,-36.731 41.606,-58.119c22.755,-44.964 38.613,-97.56 38.613,-148.282m543.142,0c0.099,29.293 34.497,47.641 54.328,61.762c36.969,26.326 75.176,53.096 87.592,99.527c13.167,49.238 -3.445,102.044 -25.654,146.021c-3.258,6.452 -6.756,12.782 -10.36,19.047c-19.044,33.092 -56.456,77.081 -28.42,115.934c8.048,11.153 19.4,20.811 30.368,28.79c18.58,13.517 34.656,21.979 55.106,33.046c36.612,19.812 66.948,37.992 109.568,34.402c44.496,-3.747 86.494,-20.041 128.577,-33.539c24.149,-7.746 50.527,-16.077 75.971,-8.891c26.813,7.572 39.887,32.792 56.225,52.801c10.775,13.195 19.031,23.265 32.35,32.796c29.592,21.177 66.539,26.06 101.65,30.903c13.937,1.922 27.954,3.355 41.999,4.176c51.722,3.027 113.361,-1.775 149.656,-43.92c8.717,-10.122 15.112,-21.689 19.967,-34.075c10.278,-26.216 13.122,-55.675 13.193,-83.613c0.075,-29.291 0.125,-59.498 -5.152,-88.501c-2.019,-11.096 -4.949,-22.29 -9.26,-32.744c-3.437,-8.334 -7.836,-16.239 -13.557,-23.233c-21.29,-26.029 -55.259,-27.601 -86.38,-23.164c-9.058,1.292 -18.042,3.141 -26.93,5.314c-18.928,4.627 -37.632,10.129 -56.478,15.079c-47.782,12.549 -111.716,30.13 -151.452,-10.405c-27.787,-28.345 -24.36,-74.145 -20.395,-110.137c6.897,-62.598 17.514,-124.391 20.488,-187.376m-543,-1502.39c-0.308,-82.612 -33.641,-170.761 -100.61,-221.978c-104.792,-80.144 -266.795,-79.431 -362.524,15.359c-23.413,23.184 -39.683,52.124 -52.197,82.355c-16.121,38.944 -27.684,82.05 -27.669,124.457m1628.91,-0.385c-0.273,-73.201 -26.544,-151.931 -79.584,-203.952c-101.212,-99.268 -281.413,-102.528 -383.446,-2.659c-29.869,29.235 -48.567,68.352 -61.694,107.509c-10.65,31.766 -18.288,65.633 -18.276,99.294m-1629.05,0c-0.103,-27.462 -2.747,-55.242 -10.428,-81.713c-5.928,-20.432 -14.071,-39.647 -25.478,-57.677c-24.61,-38.896 -58.368,-67.749 -97.006,-89c-64.105,-35.257 -141.641,-49.591 -213.111,-54.152c-25.031,-1.597 -59.904,-2.405 -84.927,-2.112c-29.092,0.342 -58.178,1.128 -87.263,1.883c-29.402,0.763 -58.787,2.182 -88.194,2.67c-57.971,0.962 -115.866,1.201 -173.558,-5.127m3480.58,2040.77c-124.367,-1.725 -8.384,9.414 -132.718,8.773c-51.686,-0.267 -103.981,-1.525 -155.225,-9.312c-40.201,-6.109 -80.3,-16.127 -115.577,-37.029c-37.074,-21.968 -67.735,-58.75 -86.9,-97.033c-14.676,-29.315 -22.055,-46.426 -31.271,-77.704c-8.946,-30.36 -15.566,-63.03 -15.619,-94.842" style="fill:none;stroke:#fff;stroke-width:108.33px;"/><path d="M392.521,978.281l1097.65,-651.302" style="fill:none;stroke:#fff;stroke-width:87.5px;"/><path d="M4340.11,3020.6l0,-1237.19" style="fill:none;stroke:#fff;stroke-width:87.5px;"/><g><path d="M992.994,618.237l-131.481,-36.862" style="fill:none;stroke:#fff;stroke-width:87.5px;"/><path d="M992.994,618.237l-23.595,133.919" style="fill:none;stroke:#fff;stroke-width:87.5px;"/></g><g><path d="M4338.18,2415.05l102.914,-89.75" style="fill:none;stroke:#fff;stroke-width:87.5px;"/><path d="M4338.18,2415.05l-99.061,-93.155" style="fill:none;stroke:#fff;stroke-width:87.5px;"/></g><circle cx="1701.58" cy="326.979" r="211.404" style="fill:none;stroke:#f00;stroke-width:87.5px;"/><circle cx="4340.11" cy="1572.01" r="211.404" style="fill:none;stroke:#ffb900;stroke-width:87.5px;"/><circle cx="4340.11" cy="3232.01" r="211.404" style="fill:none;stroke:#368d00;stroke-width:87.5px;"/><circle cx="392.521" cy="1189.68" r="211.404" style="fill:none;stroke:#007aff;stroke-width:87.5px;"/></svg>