<?xml version="1.0" encoding="UTF-8" standalone="no"?><!DOCTYPE svg PUBLIC "-//W3C//DTD SVG 1.1//EN" "http://www.w3.org/Graphics/SVG/1.1/DTD/svg11.dtd"><svg width="100%" height="100%" viewBox="0 0 4820 5441" version="1.1" xmlns="http://www.w3.org/2000/svg" xmlns:xlink="http://www.w3.org/1999/xlink" xml:space="preserve" xmlns:serif="http://www.serif.com/" style="fill-rule:evenodd;clip-rule:evenodd;stroke-linecap:round;stroke-linejoin:round;stroke-miterlimit:1.5;"><rect id="schema-black-words" x="0" y="0" width="4819.57" height="5440.33" style="fill:none;"/><g><path d="M3985.94,1947.68c-0,-193.601 -157.179,-350.779 -350.779,-350.779l-2310.25,-0c-193.601,-0 -350.779,157.178 -350.779,350.779l-0,2310.25c-0,193.6 157.178,350.779 350.779,350.779l2310.25,-0c193.6,-0 350.779,-157.179 350.779,-350.779l-0,-2310.25Zm-112.979,40.785c-0,-153.755 -124.83,-278.585 -278.586,-278.585l-2228.68,-0c-153.755,-0 -278.585,124.83 -278.585,278.585l-0,2228.68c-0,153.756 124.83,278.586 278.585,278.586l2228.68,-0c153.756,-0 278.586,-124.83 278.586,-278.586l-0,-2228.68Z" style="stroke:#000;stroke-width:29.17px;"/><path d="M968.668,3142.09l-236.175,-0.03" style="fill:none;stroke:#000;stroke-width:108.33px;"/><path d="M968.692,2582.48l-236.174,-0.03" style="fill:none;stroke:#000;stroke-width:108.33px;"/><path d="M526.913,3142.14c0.004,-56.709 46.048,-102.747 102.757,-102.743c56.71,0.005 102.747,46.049 102.743,102.758c-0.004,56.71 -46.048,102.747 -102.758,102.743c-56.709,-0.004 -102.747,-46.049 -102.742,-102.758Z" style="stroke:#000;stroke-width:62.5px;"/><path d="M968.668,3706.09l-236.175,-0.03" style="fill:none;stroke:#000;stroke-width:108.33px;"/><path d="M526.913,3706.14c0.004,-56.709 46.048,-102.747 102.757,-102.743c56.71,0.005 102.747,46.049 102.743,102.758c-0.004,56.71 -46.048,102.747 -102.758,102.743c-56.709,-0.004 -102.747,-46.049 -102.742,-102.758Z" style="stroke:#000;stroke-width:62.5px;"/><path d="M526.956,2582.53c0.004,-56.709 46.048,-102.747 102.758,-102.743c56.709,0.005 102.746,46.049 102.742,102.758c-0.004,56.71 -46.048,102.747 -102.758,102.743c-56.709,-0.004 -102.746,-46.049 -102.742,-102.758Z" style="stroke:#000;stroke-width:62.5px;"/><path d="M3997.82,2387.92l96.686,0" style="fill:none;stroke:#000;stroke-width:108.33px;"/><path d="M1701.58,1604.52l0.058,-236.221" style="fill:none;stroke:#000;stroke-width:108.33px;"/><path d="M2262.62,1604.56l0.068,-236.174" style="fill:none;stroke:#000;stroke-width:108.33px;"/><path d="M2822.23,1604.68l0.068,-236.174" style="fill:none;stroke:#000;stroke-width:108.33px;"/><path d="M3382.2,1604.78l0.069,-236.174" style="fill:none;stroke:#000;stroke-width:108.33px;"/><path d="M2262.63,1162.81c56.709,0.013 102.739,46.065 102.726,102.774c-0.013,56.71 -46.065,102.74 -102.774,102.727c-56.709,-0.014 -102.74,-46.065 -102.726,-102.775c0.013,-56.709 46.065,-102.739 102.774,-102.726Z" style="stroke:#000;stroke-width:62.5px;"/><path d="M2822.25,1162.94c56.709,0.014 102.739,46.065 102.726,102.775c-0.013,56.709 -46.065,102.739 -102.774,102.726c-56.709,-0.014 -102.739,-46.065 -102.726,-102.775c0.013,-56.709 46.065,-102.739 102.774,-102.726Z" style="stroke:#000;stroke-width:62.5px;"/><path d="M3382.22,1163.06c56.71,0.014 102.74,46.065 102.726,102.775c-0.013,56.709 -46.064,102.739 -102.774,102.726c-56.709,-0.013 -102.739,-46.065 -102.726,-102.774c0.013,-56.71 46.065,-102.74 102.774,-102.727Z" style="stroke:#000;stroke-width:62.5px;"/><path d="M2243.19,4608.82l-0.068,236.174" style="fill:none;stroke:#000;stroke-width:108.33px;"/><path d="M2243.17,5050.55c-56.709,-0.014 -102.739,-46.065 -102.726,-102.775c0.013,-56.709 46.065,-102.739 102.774,-102.726c56.71,0.014 102.74,46.065 102.727,102.775c-0.014,56.709 -46.065,102.739 -102.775,102.726Z" style="stroke:#000;stroke-width:62.5px;"/><path d="M2822.3,4608.82l-0.068,236.174" style="fill:none;stroke:#000;stroke-width:108.33px;"/><path d="M2822.2,5050.55c-56.709,-0.014 -102.739,-46.065 -102.726,-102.775c0.013,-56.709 46.065,-102.739 102.774,-102.726c56.709,0.014 102.739,46.065 102.726,102.775c-0.013,56.709 -46.065,102.739 -102.774,102.726Z" style="stroke:#000;stroke-width:62.5px;"/><path d="M3382.27,4608.82l-0.069,236.174" style="fill:none;stroke:#000;stroke-width:108.33px;"/><path d="M3382.17,5050.55c-56.709,-0.014 -102.739,-46.065 -102.726,-102.775c0.013,-56.709 46.065,-102.739 102.774,-102.726c56.71,0.014 102.74,46.065 102.726,102.775c-0.013,56.709 -46.064,102.739 -102.774,102.726Z" style="stroke:#000;stroke-width:62.5px;"/><path d="M1701.63,4608.82l-0.069,236.174" style="fill:none;stroke:#000;stroke-width:108.33px;"/><path d="M1703.27,5050.55c-56.709,-0.014 -102.739,-46.065 -102.726,-102.775c0.013,-56.709 46.065,-102.739 102.774,-102.726c56.71,0.014 102.74,46.065 102.726,102.775c-0.013,56.709 -46.065,102.739 -102.774,102.726Z" style="stroke:#000;stroke-width:62.5px;"/></g><path d="M3164.74,2434.38c0,-78.263 -63.539,-141.803 -141.802,-141.803c-78.263,0 -141.802,63.54 -141.802,141.803l-0,1218.6c-0,78.262 63.539,141.802 141.802,141.802c78.263,-0 141.802,-63.54 141.802,-141.802l0,-1218.6Z" style="stroke:#000;stroke-width:62.5px;"/><path d="M3708.55,2434.38c-0,-78.263 -63.54,-141.803 -141.802,-141.803c-78.263,0 -141.803,63.54 -141.803,141.803l0,1218.6c0,78.262 63.54,141.802 141.803,141.802c78.262,-0 141.802,-63.54 141.802,-141.802l-0,-1218.6Z" style="stroke:#000;stroke-width:62.5px;"/><path d="M2078.69,2434.38c0,-78.263 -63.539,-141.803 -141.802,-141.803c-78.263,0 -141.802,63.54 -141.802,141.803l-0,1218.6c-0,78.262 63.539,141.802 141.802,141.802c78.263,-0 141.802,-63.54 141.802,-141.802l0,-1218.6Z" style="stroke:#000;stroke-width:62.5px;"/><path d="M1535.69,2434.38c0,-78.263 -63.539,-141.803 -141.802,-141.803c-78.263,0 -141.802,63.54 -141.802,141.803l-0,1218.6c-0,78.262 63.539,141.802 141.802,141.802c78.263,-0 141.802,-63.54 141.802,-141.802l0,-1218.6Z" style="stroke:#000;stroke-width:62.5px;"/><path d="M2621.84,2434.38c0,-78.263 -63.539,-141.803 -141.802,-141.803c-78.263,0 -141.802,63.54 -141.802,141.803l0,1218.6c0,78.262 63.539,141.802 141.802,141.802c78.263,-0 141.802,-63.54 141.802,-141.802l0,-1218.6Z" style="stroke:#000;stroke-width:62.5px;"/><path d="M1393.89,3794.78c0.245,72.565 26.077,152.38 79.337,203.605c73.517,70.71 192.158,82.07 286.482,54.569c35.165,-10.253 69.832,-26.737 96.962,-51.774c17.737,-16.368 30.783,-36.731 41.606,-58.119c22.755,-44.963 38.613,-97.56 38.613,-148.281m543.142,-0c0.099,29.292 34.497,47.64 54.328,61.761c36.969,26.326 75.176,53.096 87.592,99.527c13.167,49.238 -3.445,102.044 -25.654,146.022c-3.258,6.451 -6.756,12.782 -10.36,19.046c-19.044,33.092 -56.456,77.081 -28.42,115.934c8.048,11.153 19.4,20.812 30.368,28.791c18.58,13.516 34.656,21.978 55.106,33.045c36.612,19.812 66.948,37.992 109.568,34.403c44.496,-3.748 86.494,-20.042 128.577,-33.54c24.149,-7.746 50.527,-16.076 75.971,-8.891c26.813,7.572 39.887,32.792 56.225,52.801c10.775,13.195 19.031,23.265 32.35,32.796c29.592,21.177 66.539,26.06 101.65,30.903c13.937,1.923 27.954,3.355 41.999,4.177c51.722,3.026 113.361,-1.776 149.656,-43.921c8.717,-10.122 15.112,-21.689 19.967,-34.074c10.278,-26.217 13.122,-55.676 13.193,-83.614c0.075,-29.29 0.125,-59.498 -5.152,-88.501c-2.019,-11.096 -4.949,-22.29 -9.26,-32.744c-3.437,-8.334 -7.836,-16.239 -13.557,-23.233c-21.29,-26.028 -55.259,-27.601 -86.38,-23.163c-9.058,1.291 -18.042,3.14 -26.93,5.313c-18.928,4.628 -37.632,10.129 -56.478,15.079c-47.782,12.55 -111.716,30.13 -151.452,-10.405c-27.787,-28.345 -24.36,-74.144 -20.395,-110.137c6.897,-62.597 17.514,-124.39 20.488,-187.375m-543,-1502.39c-0.308,-82.613 -33.641,-170.762 -100.61,-221.978c-104.792,-80.144 -266.795,-79.432 -362.524,15.359c-23.413,23.183 -39.683,52.124 -52.197,82.354c-16.121,38.945 -27.684,82.05 -27.669,124.457m1628.91,-0.385c-0.273,-73.201 -26.544,-151.93 -79.584,-203.952c-101.212,-99.268 -281.413,-102.528 -383.446,-2.659c-29.869,29.235 -48.567,68.352 -61.694,107.51c-10.65,31.766 -18.288,65.632 -18.276,99.294m-1629.05,-0c-0.103,-27.463 -2.747,-55.243 -10.428,-81.714c-5.928,-20.432 -14.071,-39.647 -25.478,-57.677c-24.61,-38.896 -58.368,-67.748 -97.006,-88.999c-64.105,-35.258 -141.641,-49.592 -213.111,-54.153c-25.031,-1.597 -59.904,-2.405 -84.927,-2.111c-29.092,0.341 -58.178,1.128 -87.263,1.882c-29.402,0.763 -58.787,2.182 -88.194,2.67c-57.971,0.963 -115.866,1.201 -173.558,-5.126m3480.58,2040.77c-124.367,-1.724 -8.384,9.414 -132.718,8.773c-51.686,-0.267 -103.981,-1.525 -155.225,-9.312c-40.201,-6.109 -80.3,-16.127 -115.577,-37.029c-37.074,-21.968 -67.735,-58.75 -86.9,-97.032c-14.676,-29.316 -22.055,-46.427 -31.271,-77.704c-8.946,-30.361 -15.566,-63.031 -15.619,-94.842" style="fill:none;stroke:#000;stroke-width:108.33px;"/><path d="M392.521,1794.2l1097.65,-651.301" style="fill:none;stroke:#000;stroke-width:87.5px;"/><path d="M4340.11,3836.52l0,-1237.19" style="fill:none;stroke:#000;stroke-width:87.5px;"/><g><path d="M992.994,1434.15l-131.481,-36.862" style="fill:none;stroke:#000;stroke-width:87.5px;"/><path d="M992.994,1434.15l-23.595,133.919" style="fill:none;stroke:#000;stroke-width:87.5px;"/></g><g><path d="M4338.18,3230.96l102.914,-89.749" style="fill:none;stroke:#000;stroke-width:87.5px;"/><path d="M4338.18,3230.96l-99.061,-93.155" style="fill:none;stroke:#000;stroke-width:87.5px;"/></g><g transform="matrix(9.07257,0,0,9.07257,-184817,-179697)"><text x="20604.1px" y="19872.6px" style="font-family:'ArialRoundedMTBold', 'Arial Rounded MT Bold', sans-serif;font-size:50px;">BioSim</text><text x="20604.1px" y="19922.6px" style="font-family:'ArialRoundedMTBold', 'Arial Rounded MT Bold', sans-serif;font-size:50px;">Sc<tspan x="20665.9px 20696.1px " y="19922.6px 19922.6px ">he</tspan>ma</text></g><circle cx="1701.58" cy="1142.9" r="211.404" style="fill:none;stroke:#f00;stroke-width:87.5px;"/><circle cx="4340.11" cy="2387.92" r="211.404" style="fill:none;stroke:#ffb900;stroke-width:87.5px;"/><circle cx="4340.11" cy="4047.92" r="211.404" style="fill:none;stroke:#368d00;stroke-width:87.5px;"/><circle cx="392.521" cy="2005.6" r="211.404" style="fill:none;stroke:#007aff;stroke-width:87.5px;"/></svg>