<?xml version="1.0" encoding="UTF-8" standalone="no"?><!DOCTYPE svg PUBLIC "-//W3C//DTD SVG 1.1//EN" "http://www.w3.org/Graphics/SVG/1.1/DTD/svg11.dtd"><svg width="100%" height="100%" viewBox="0 0 4340 4213" version="1.1" xmlns="http://www.w3.org/2000/svg" xmlns:xlink="http://www.w3.org/1999/xlink" xml:space="preserve" xmlns:serif="http://www.serif.com/" style="fill-rule:evenodd;clip-rule:evenodd;stroke-linecap:round;stroke-linejoin:round;stroke-miterlimit:1.5;"><rect id="biosimdb-logo-black" x="0" y="0" width="4339.49" height="4212.63" style="fill:none;"/><g><path d="M3672.56,970.81c-0,-193.601 -157.179,-350.779 -350.779,-350.779l-2310.25,-0c-193.6,-0 -350.779,157.178 -350.779,350.779l-0,2310.25c-0,193.6 157.179,350.779 350.779,350.779l2310.25,-0c193.6,-0 350.779,-157.179 350.779,-350.779l-0,-2310.25Zm-112.979,40.785c-0,-153.755 -124.83,-278.585 -278.586,-278.585l-2228.68,-0c-153.755,-0 -278.585,124.83 -278.585,278.585l0,2228.68c0,153.755 124.83,278.585 278.585,278.585l2228.68,0c153.756,0 278.586,-124.83 278.586,-278.585l-0,-2228.68Z" style="stroke:#000;stroke-width:29.17px;"/><path d="M655.287,2165.22l-236.174,-0.03" style="fill:none;stroke:#000;stroke-width:108.33px;"/><path d="M655.312,1605.61l-236.175,-0.03" style="fill:none;stroke:#000;stroke-width:108.33px;"/><path d="M213.532,2165.27c0.004,-56.71 46.048,-102.747 102.758,-102.743c56.709,0.004 102.746,46.049 102.742,102.758c-0.004,56.709 -46.048,102.747 -102.758,102.743c-56.709,-0.005 -102.746,-46.049 -102.742,-102.758Z" style="stroke:#000;stroke-width:62.5px;"/><path d="M655.287,2729.22l-236.174,-0.03" style="fill:none;stroke:#000;stroke-width:108.33px;"/><path d="M213.532,2729.27c0.004,-56.71 46.048,-102.747 102.758,-102.743c56.709,0.004 102.746,46.049 102.742,102.758c-0.004,56.709 -46.048,102.747 -102.758,102.743c-56.709,-0.005 -102.746,-46.049 -102.742,-102.758Z" style="stroke:#000;stroke-width:62.5px;"/><path d="M213.575,1605.66c0.004,-56.71 46.048,-102.747 102.758,-102.743c56.709,0.004 102.747,46.049 102.742,102.758c-0.004,56.709 -46.048,102.747 -102.758,102.743c-56.709,-0.005 -102.746,-46.049 -102.742,-102.758Z" style="stroke:#000;stroke-width:62.5px;"/><path d="M3684.44,1411.05l236.22,-0.086" style="fill:none;stroke:#000;stroke-width:108.33px;"/><path d="M3684.73,1972.09l236.174,-0.075" style="fill:none;stroke:#000;stroke-width:108.33px;"/><path d="M3684.96,2531.7l236.174,-0.075" style="fill:none;stroke:#000;stroke-width:108.33px;"/><path d="M4126.28,1412.53c0.021,56.709 -46.003,102.767 -102.712,102.788c-56.71,0.021 -102.767,-46.003 -102.788,-102.712c-0.021,-56.71 46.003,-102.767 102.712,-102.788c56.709,-0.021 102.767,46.002 102.788,102.712Z" style="stroke:#000;stroke-width:62.5px;"/><path d="M4126.48,1971.84c0.021,56.709 -46.003,102.767 -102.712,102.788c-56.709,0.021 -102.767,-46.003 -102.788,-102.712c-0.021,-56.71 46.003,-102.768 102.712,-102.789c56.709,-0.02 102.767,46.003 102.788,102.713Z" style="stroke:#000;stroke-width:62.5px;"/><path d="M4126.7,2531.46c0.021,56.709 -46.003,102.767 -102.712,102.788c-56.71,0.021 -102.768,-46.003 -102.789,-102.712c-0.021,-56.71 46.003,-102.768 102.713,-102.788c56.709,-0.021 102.767,46.002 102.788,102.712Z" style="stroke:#000;stroke-width:62.5px;"/><path d="M1388.19,627.65l0.057,-236.22" style="fill:none;stroke:#000;stroke-width:108.33px;"/><path d="M1949.23,627.691l0.069,-236.174" style="fill:none;stroke:#000;stroke-width:108.33px;"/><path d="M2508.85,627.809l0.069,-236.174" style="fill:none;stroke:#000;stroke-width:108.33px;"/><path d="M3068.82,627.91l0.069,-236.174" style="fill:none;stroke:#000;stroke-width:108.33px;"/><path d="M1389.94,185.809c56.71,0.013 102.74,46.065 102.726,102.774c-0.013,56.71 -46.064,102.74 -102.774,102.727c-56.709,-0.014 -102.739,-46.065 -102.726,-102.775c0.013,-56.709 46.065,-102.739 102.774,-102.726Z" style="stroke:#000;stroke-width:62.5px;"/><path d="M1949.25,185.936c56.71,0.013 102.74,46.065 102.726,102.774c-0.013,56.71 -46.065,102.74 -102.774,102.726c-56.709,-0.013 -102.739,-46.064 -102.726,-102.774c0.013,-56.709 46.065,-102.739 102.774,-102.726Z" style="stroke:#000;stroke-width:62.5px;"/><path d="M2508.87,186.072c56.71,0.013 102.74,46.065 102.726,102.774c-0.013,56.71 -46.065,102.74 -102.774,102.726c-56.709,-0.013 -102.739,-46.064 -102.726,-102.774c0.013,-56.709 46.065,-102.739 102.774,-102.726Z" style="stroke:#000;stroke-width:62.5px;"/><path d="M3068.84,186.189c56.709,0.014 102.739,46.065 102.726,102.775c-0.014,56.709 -46.065,102.739 -102.775,102.726c-56.709,-0.014 -102.739,-46.065 -102.726,-102.775c0.014,-56.709 46.065,-102.739 102.775,-102.726Z" style="stroke:#000;stroke-width:62.5px;"/><path d="M1929.81,3631.94l-0.068,236.174" style="fill:none;stroke:#000;stroke-width:108.33px;"/><path d="M1929.79,4073.68c-56.709,-0.014 -102.739,-46.065 -102.726,-102.775c0.014,-56.709 46.065,-102.739 102.775,-102.726c56.709,0.014 102.739,46.065 102.726,102.774c-0.014,56.71 -46.065,102.74 -102.775,102.727Z" style="stroke:#000;stroke-width:62.5px;"/><path d="M2508.92,3631.94l-0.069,236.174" style="fill:none;stroke:#000;stroke-width:108.33px;"/><path d="M2508.82,4073.68c-56.709,-0.014 -102.739,-46.065 -102.726,-102.775c0.013,-56.709 46.065,-102.739 102.774,-102.726c56.71,0.014 102.74,46.065 102.726,102.774c-0.013,56.71 -46.065,102.74 -102.774,102.727Z" style="stroke:#000;stroke-width:62.5px;"/><path d="M3068.89,3631.94l-0.069,236.174" style="fill:none;stroke:#000;stroke-width:108.33px;"/><path d="M3068.79,4073.68c-56.709,-0.014 -102.739,-46.065 -102.726,-102.775c0.014,-56.709 46.065,-102.739 102.775,-102.726c56.709,0.014 102.739,46.065 102.726,102.774c-0.014,56.71 -46.065,102.74 -102.775,102.727Z" style="stroke:#000;stroke-width:62.5px;"/><path d="M1388.25,3631.94l-0.069,236.174" style="fill:none;stroke:#000;stroke-width:108.33px;"/><path d="M1389.89,4073.68c-56.709,-0.014 -102.739,-46.065 -102.726,-102.775c0.013,-56.709 46.065,-102.739 102.774,-102.726c56.71,0.014 102.74,46.065 102.726,102.774c-0.013,56.71 -46.064,102.74 -102.774,102.727Z" style="stroke:#000;stroke-width:62.5px;"/></g><path d="M213.575,1035.07c0.004,-56.71 46.048,-102.747 102.758,-102.743c56.709,0.004 102.747,46.048 102.742,102.758c-0.004,56.709 -46.048,102.747 -102.758,102.742c-56.709,-0.004 -102.746,-46.048 -102.742,-102.757Z" style="stroke:#000;stroke-width:62.5px;"/><path d="M4124.02,3079.79c0.021,56.709 -46.003,102.767 -102.713,102.788c-56.709,0.021 -102.767,-46.003 -102.788,-102.712c-0.021,-56.71 46.003,-102.768 102.712,-102.789c56.71,-0.021 102.768,46.003 102.789,102.713Z" style="stroke:#000;stroke-width:62.5px;"/><path d="M2851.36,1457.51c0,-78.262 -63.539,-141.802 -141.802,-141.802c-78.263,0 -141.802,63.54 -141.802,141.802l0,1218.6c0,78.263 63.539,141.802 141.802,141.802c78.263,0 141.802,-63.539 141.802,-141.802l0,-1218.6Z" style="stroke:#000;stroke-width:62.5px;"/><path d="M3395.17,1457.51c-0,-78.262 -63.54,-141.802 -141.802,-141.802c-78.263,0 -141.802,63.54 -141.802,141.802l-0,1218.6c-0,78.263 63.539,141.802 141.802,141.802c78.262,0 141.802,-63.539 141.802,-141.802l-0,-1218.6Z" style="stroke:#000;stroke-width:62.5px;"/><path d="M2308.45,1457.51c0,-78.262 -63.539,-141.802 -141.802,-141.802c-78.262,0 -141.802,63.54 -141.802,141.802l0,1218.6c0,78.263 63.54,141.802 141.802,141.802c78.263,0 141.802,-63.539 141.802,-141.802l0,-1218.6Z" style="stroke:#000;stroke-width:62.5px;"/><path d="M2166.65,2817.91c0.099,29.293 34.497,47.641 54.328,61.762c36.969,26.326 75.176,53.096 87.592,99.527c13.167,49.238 -3.445,102.044 -25.654,146.022c-3.257,6.451 -6.755,12.782 -10.36,19.046c-19.044,33.092 -56.456,77.081 -28.42,115.934c8.048,11.153 19.4,20.811 30.368,28.791c18.58,13.516 34.656,21.978 55.106,33.045c36.612,19.812 66.948,37.992 109.568,34.402c44.496,-3.747 86.494,-20.041 128.577,-33.539c24.149,-7.746 50.527,-16.076 75.971,-8.891c26.813,7.572 39.887,32.792 56.225,52.801c10.775,13.195 19.031,23.265 32.35,32.796c29.592,21.177 66.54,26.06 101.65,30.903c13.937,1.922 27.954,3.355 41.999,4.176c51.722,3.027 113.361,-1.775 149.656,-43.92c8.718,-10.122 15.112,-21.689 19.968,-34.074c10.277,-26.217 13.121,-55.676 13.192,-83.614c0.075,-29.291 0.125,-59.498 -5.152,-88.501c-2.019,-11.096 -4.949,-22.29 -9.26,-32.744c-3.437,-8.334 -7.836,-16.239 -13.557,-23.233c-21.29,-26.029 -55.258,-27.601 -86.38,-23.163c-9.058,1.291 -18.042,3.14 -26.93,5.313c-18.928,4.628 -37.631,10.129 -56.478,15.079c-47.782,12.549 -111.716,30.13 -151.452,-10.405c-27.787,-28.345 -24.36,-74.144 -20.395,-110.137c6.897,-62.597 17.514,-124.39 20.488,-187.376" style="fill:none;stroke:#000;stroke-width:108.33px;"/><path d="M2166.65,1315.51c-0.308,-82.613 -33.641,-170.762 -100.609,-221.978c-104.793,-80.145 -266.796,-79.432 -362.524,15.359c-23.414,23.183 -39.684,52.124 -52.198,82.354c-16.121,38.944 -27.684,82.05 -27.669,124.457" style="fill:none;stroke:#000;stroke-width:108.33px;"/><path d="M3252.56,1315.32c-0.273,-73.201 -26.544,-151.93 -79.584,-203.952c-101.212,-99.268 -281.413,-102.528 -383.446,-2.659c-29.868,29.235 -48.566,68.352 -61.694,107.509c-10.649,31.767 -18.288,65.633 -18.276,99.295" style="fill:none;stroke:#000;stroke-width:108.33px;"/><path d="M1080.51,1315.51c-0.102,-27.463 -2.747,-55.243 -10.428,-81.714c-5.928,-20.432 -14.071,-39.647 -25.478,-57.677c-24.61,-38.896 -58.368,-67.748 -97.006,-89c-64.105,-35.257 -141.641,-49.591 -213.111,-54.152c-25.031,-1.597 -59.904,-2.405 -84.927,-2.112c-29.092,0.342 -58.178,1.128 -87.263,1.883c-29.402,0.763 -58.787,2.182 -88.194,2.67c-57.971,0.963 -115.866,1.201 -173.558,-5.126" style="fill:none;stroke:#000;stroke-width:108.33px;"/><path d="M4021.27,3073.14c-124.366,-1.725 -248.521,7.331 -372.855,6.69c-51.686,-0.267 -103.981,-1.525 -155.225,-9.312c-40.201,-6.109 -80.3,-16.127 -115.577,-37.029c-37.074,-21.968 -67.735,-58.75 -86.9,-97.032c-14.676,-29.316 -22.055,-46.427 -31.271,-77.704c-8.946,-30.361 -15.566,-63.031 -15.618,-94.843" style="fill:none;stroke:#000;stroke-width:108.33px;"/><g><ellipse cx="1348.95" cy="1494.34" rx="427.87" ry="178.636" style="fill:#368d00;stroke:#368d00;stroke-width:83.33px;"/><path d="M1776.82,1780.53c-0,98.591 -191.722,178.635 -427.87,178.635c-236.148,0 -427.869,-80.044 -427.869,-178.635" style="fill:none;stroke:#368d00;stroke-width:83.33px;"/><path d="M1776.82,2066.71c-0,98.592 -191.722,178.636 -427.87,178.636c-236.148,-0 -427.869,-80.044 -427.869,-178.636" style="fill:none;stroke:#368d00;stroke-width:83.33px;"/><path d="M1776.82,2352.9c-0,98.591 -191.722,178.635 -427.87,178.635c-236.148,0 -427.869,-80.044 -427.869,-178.635" style="fill:none;stroke:#368d00;stroke-width:83.33px;"/><path d="M1776.82,2639.27c-0,98.592 -191.722,178.635 -427.87,178.635c-236.148,0 -427.869,-80.043 -427.869,-178.635" style="fill:none;stroke:#368d00;stroke-width:83.33px;"/><path d="M921.08,2639.27l-0,-1123.02" style="fill:none;stroke:#368d00;stroke-width:83.33px;"/><path d="M1776.82,2639.27l-0,-1123.02" style="fill:none;stroke:#368d00;stroke-width:83.33px;"/></g></svg>